<svg width="142" height="47" viewBox="0 0 142 47" fill="none" xmlns="http://www.w3.org/2000/svg">
<path d="M8.032 46V38.192H18.656C20.6187 38.192 22.1547 37.616 23.264 36.464C24.3733 35.312 24.928 33.904 24.928 32.24C24.928 31.088 24.672 30.064 24.16 29.168C23.648 28.272 22.9227 27.568 21.984 27.056C21.088 26.544 19.9787 26.288 18.656 26.288H8.032V18.672H17.824C19.488 18.672 20.832 18.2667 21.856 17.456C22.88 16.6027 23.392 15.3227 23.392 13.616C23.392 11.952 22.88 10.7147 21.856 9.904C20.832 9.05066 19.488 8.624 17.824 8.624H8.032V0.815998H19.744C22.6453 0.815998 25.0987 1.34933 27.104 2.416C29.152 3.48266 30.7093 4.912 31.776 6.704C32.8427 8.496 33.376 10.48 33.376 12.656C33.376 15.4293 32.48 17.776 30.688 19.696C28.896 21.616 26.2507 22.9387 22.752 23.664L23.008 20.272C26.8053 20.9973 29.728 22.4693 31.776 24.688C33.8667 26.9067 34.912 29.6373 34.912 32.88C34.912 35.3547 34.2933 37.5947 33.056 39.6C31.8613 41.5627 30.112 43.12 27.808 44.272C25.5467 45.424 22.816 46 19.616 46H8.032ZM0.352 46V0.815998H10.272V46H0.352ZM41.352 46V0.815998H51.4V46H41.352ZM69.32 46V0.815998H79.432V46H69.32ZM47.368 27.12V18.416H72.648V27.12H47.368ZM93.734 46V0.815998H103.718V46H93.734ZM85.03 9.328V0.815998H103.078V9.328H85.03ZM124.13 46.704C121.015 46.704 118.156 46.1707 115.554 45.104C112.951 43.9947 110.754 42.416 108.962 40.368L115.426 33.904C116.236 35.0987 117.41 36.08 118.946 36.848C120.524 37.5733 122.188 37.936 123.938 37.936C125.516 37.936 126.882 37.6587 128.034 37.104C129.186 36.5493 130.082 35.76 130.722 34.736C131.404 33.712 131.746 32.496 131.746 31.088C131.746 29.68 131.404 28.4853 130.722 27.504C130.082 26.48 129.122 25.6907 127.842 25.136C126.604 24.5813 125.111 24.304 123.362 24.304C122.551 24.304 121.698 24.368 120.802 24.496C119.948 24.5813 119.223 24.7307 118.626 24.944L123.042 19.376C124.236 19.0347 125.367 18.7573 126.434 18.544C127.543 18.288 128.567 18.16 129.506 18.16C131.81 18.16 133.879 18.7147 135.714 19.824C137.548 20.8907 138.999 22.4267 140.066 24.432C141.175 26.3947 141.729 28.7413 141.729 31.472C141.729 34.4587 140.983 37.104 139.49 39.408C138.039 41.712 135.991 43.504 133.346 44.784C130.743 46.064 127.671 46.704 124.13 46.704ZM118.626 24.944V19.376L129.634 6.448L140.898 6.384L129.442 19.44L118.626 24.944ZM111.778 9.328V0.815998H140.898V6.384L133.026 9.328H111.778Z" fill="black"/>
</svg>
